<svg xmlns="http://www.w3.org/2000/svg" viewBox="0 0 1920 1080">
  <!-- Gradiente de fondo -->
  <defs>
    <linearGradient id="bg-gradient" x1="0%" y1="0%" x2="100%" y2="100%">
      <stop offset="0%" stop-color="#3B82F6" stop-opacity="0.2" />
      <stop offset="100%" stop-color="#93C5FD" stop-opacity="0.2" />
    </linearGradient>
    <pattern id="pokeball-pattern" x="0" y="0" width="180" height="180" patternUnits="userSpaceOnUse">
      <circle cx="90" cy="90" r="35" fill="none" stroke="#FF0000" stroke-width="2" stroke-opacity="0.15" />
      <line x1="55" y1="90" x2="125" y2="90" stroke="#000000" stroke-width="2" stroke-opacity="0.15" />
      <circle cx="90" cy="90" r="10" fill="none" stroke="#000000" stroke-width="2" stroke-opacity="0.15" />
    </pattern>
  </defs>
  
  <!-- Fondo principal -->
  <rect width="100%" height="100%" fill="url(#bg-gradient)" />
  <rect width="100%" height="100%" fill="url(#pokeball-pattern)" />
  
  <!-- Pokéballs decorativas -->
  <!-- Pokéball grande superior izquierda -->
  <g opacity="0.1" transform="translate(250, 200)">
    <circle cx="0" cy="0" r="120" fill="#FFFFFF" stroke="#000000" stroke-width="8" />
    <path d="M -120,0 A 120,120 0 0,1 120,0" fill="#FF0000" stroke="#000000" stroke-width="8" />
    <line x1="-120" y1="0" x2="120" y2="0" stroke="#000000" stroke-width="8" />
    <circle cx="0" cy="0" r="35" fill="#FFFFFF" stroke="#000000" stroke-width="8" />
    <circle cx="0" cy="0" r="15" fill="#FFFFFF" stroke="#000000" stroke-width="3" />
  </g>
  
  <!-- Pokéball grande inferior derecha -->
  <g opacity="0.1" transform="translate(1700, 900)">
    <circle cx="0" cy="0" r="140" fill="#FFFFFF" stroke="#000000" stroke-width="8" />
    <path d="M -140,0 A 140,140 0 0,1 140,0" fill="#FF0000" stroke="#000000" stroke-width="8" />
    <line x1="-140" y1="0" x2="140" y2="0" stroke="#000000" stroke-width="8" />
    <circle cx="0" cy="0" r="40" fill="#FFFFFF" stroke="#000000" stroke-width="8" />
    <circle cx="0" cy="0" r="18" fill="#FFFFFF" stroke="#000000" stroke-width="3" />
  </g>
  
  <!-- Pokéballs pequeñas dispersas por el fondo -->
  <g opacity="0.08">
    <!-- Pokéball 1 -->
    <g transform="translate(400, 500) scale(0.6)">
      <circle cx="0" cy="0" r="50" fill="#FFFFFF" stroke="#000000" stroke-width="5" />
      <path d="M -50,0 A 50,50 0 0,1 50,0" fill="#FF0000" stroke="#000000" stroke-width="5" />
      <line x1="-50" y1="0" x2="50" y2="0" stroke="#000000" stroke-width="5" />
      <circle cx="0" cy="0" r="15" fill="#FFFFFF" stroke="#000000" stroke-width="5" />
      <circle cx="0" cy="0" r="5" fill="#FFFFFF" stroke="#000000" stroke-width="2" />
    </g>
    
    <!-- Pokéball 2 -->
    <g transform="translate(1200, 300) scale(0.5)">
      <circle cx="0" cy="0" r="50" fill="#FFFFFF" stroke="#000000" stroke-width="5" />
      <path d="M -50,0 A 50,50 0 0,1 50,0" fill="#FF0000" stroke="#000000" stroke-width="5" />
      <line x1="-50" y1="0" x2="50" y2="0" stroke="#000000" stroke-width="5" />
      <circle cx="0" cy="0" r="15" fill="#FFFFFF" stroke="#000000" stroke-width="5" />
      <circle cx="0" cy="0" r="5" fill="#FFFFFF" stroke="#000000" stroke-width="2" />
    </g>
    
    <!-- Pokéball 3 -->
    <g transform="translate(900, 700) scale(0.7)">
      <circle cx="0" cy="0" r="50" fill="#FFFFFF" stroke="#000000" stroke-width="5" />
      <path d="M -50,0 A 50,50 0 0,1 50,0" fill="#FF0000" stroke="#000000" stroke-width="5" />
      <line x1="-50" y1="0" x2="50" y2="0" stroke="#000000" stroke-width="5" />
      <circle cx="0" cy="0" r="15" fill="#FFFFFF" stroke="#000000" stroke-width="5" />
      <circle cx="0" cy="0" r="5" fill="#FFFFFF" stroke="#000000" stroke-width="2" />
    </g>
    
    <!-- Pokéball 4 -->
    <g transform="translate(600, 850) scale(0.4)">
      <circle cx="0" cy="0" r="50" fill="#FFFFFF" stroke="#000000" stroke-width="5" />
      <path d="M -50,0 A 50,50 0 0,1 50,0" fill="#FF0000" stroke="#000000" stroke-width="5" />
      <line x1="-50" y1="0" x2="50" y2="0" stroke="#000000" stroke-width="5" />
      <circle cx="0" cy="0" r="15" fill="#FFFFFF" stroke="#000000" stroke-width="5" />
      <circle cx="0" cy="0" r="5" fill="#FFFFFF" stroke="#000000" stroke-width="2" />
    </g>
    
    <!-- Pokéball 5 -->
    <g transform="translate(1500, 650) scale(0.55)">
      <circle cx="0" cy="0" r="50" fill="#FFFFFF" stroke="#000000" stroke-width="5" />
      <path d="M -50,0 A 50,50 0 0,1 50,0" fill="#FF0000" stroke="#000000" stroke-width="5" />
      <line x1="-50" y1="0" x2="50" y2="0" stroke="#000000" stroke-width="5" />
      <circle cx="0" cy="0" r="15" fill="#FFFFFF" stroke="#000000" stroke-width="5" />
      <circle cx="0" cy="0" r="5" fill="#FFFFFF" stroke="#000000" stroke-width="2" />
    </g>
  </g>
  
  <!-- Borde amarillo decorativo superior e inferior -->
  <rect x="0" y="0" width="100%" height="15" fill="#FBBF24" opacity="0.4" />
  <rect x="0" y="1065" width="100%" height="15" fill="#FBBF24" opacity="0.4" />
</svg>
